<?xml version="1.0" encoding="UTF-8"?><svg id="_圖層_1" xmlns="http://www.w3.org/2000/svg" viewBox="0 0 300 300"><path d="m134.26,160.23c-2.32,0-4.57-1.22-5.77-3.39-3.9-7.02-9.67-6.9-9.75-6.86-3.62.22-6.76-2.55-6.99-6.18-.22-3.64,2.55-6.76,6.18-6.99,5.22-.33,15.74,2.19,22.08,13.62,1.77,3.18.62,7.2-2.56,8.97-1.01.56-2.11.83-3.2.83Z" fill="#9fecff" stroke-width="0"/><circle id="_人頭" cx="212.97" cy="66.34" r="28.1" fill="#9fecff" stroke-width="0"/><ellipse id="_人身" cx="212.97" cy="159.56" rx="35.01" ry="53.94" fill="#9fecff" stroke-width="0"/><path d="m192.65,300.13c-3.65,0-6.61-2.96-6.61-6.61v-68.31c0-3.65,2.96-6.61,6.61-6.61s6.61,2.96,6.61,6.61v68.31c0,3.65-2.96,6.61-6.61,6.61Z" fill="#3f4243" stroke-width="0"/><path d="m233.29,300.13c-3.65,0-6.61-2.96-6.61-6.61v-68.31c0-3.65,2.96-6.61,6.61-6.61s6.61,2.96,6.61,6.61v68.31c0,3.65-2.96,6.61-6.61,6.61Z" fill="#3f4243" stroke-width="0"/><path id="_垃圾桶" d="m56.11,297c.36,1.75,1.89,3,3.67,3h52.87c1.78,0,3.32-1.26,3.67-3l21.48-105.48c.47-2.32-1.3-4.5-3.67-4.5H38.31c-2.37,0-4.15,2.17-3.67,4.5l21.48,105.48Z" fill="#9fecff" stroke-width="0"/><g id="_雙手"><path d="m211.95,176.53c-.37,0-.74-.03-1.11-.09-11.63-1.98-20.12-11.59-21.61-24.46-1.11-9.61,1.8-20.99,10.06-29.06-10.54-2.76-20.07.17-29.04,3.61-17.19,6.59-30.59,21.53-30.73,21.68-2.43,2.73-6.61,2.98-9.34.55s-2.98-6.61-.55-9.34c.63-.71,15.71-17.51,35.88-25.25,13.84-5.31,30.26-9.29,48.17.32,15.44-5.09,31.25-1.46,45.95,10.6,17.48,14.34,23.9,36.38,24.16,37.31,1,3.51-1.04,7.17-4.55,8.17-3.51,1-7.16-1.03-8.17-4.54h0c-.05-.19-5.62-19.06-19.83-30.71-7.95-6.53-15.97-9.8-23.95-9.8h-.02c7.11,8.77,10.42,20.06,8.36,30.52-2.16,10.93-9.87,18.55-20.63,20.38-.35.06-.71.09-1.07.09h-1.92s-.03.01-.04.01Zm.53-47.13c-8.09,4.78-10.96,13.73-10.11,21.05.3,2.61,1.92,11.11,10.18,12.85h.7c6.4-1.3,8.64-6.03,9.39-9.82,1.43-7.25-1.67-17.42-10.15-24.08Z" fill="#3f4243" stroke-width="0"/></g></svg>