<?xml version="1.0" encoding="UTF-8"?><svg id="_圖層_1" xmlns="http://www.w3.org/2000/svg" viewBox="0 0 300 300"><g id="_下捲線"><path d="m236.35,156.4c-7.38,0-14.16-4.38-17.87-11.8-2.57-5.15-3.58-11.79-1.83-18.17-4.28.67-7.61,2.37-11.58,6.06-6.54,6.09-7.26,14.69-7.27,14.78-.27,3.62-3.4,6.36-7.04,6.13-3.63-.25-6.38-3.34-6.16-6.97.03-.56.95-13.84,11.46-23.62,10.01-9.32,18.68-10.32,30.09-9.89,8.97-6.88,20.16-8.22,32.57-3.84,3.45,1.22,5.25,4.99,4.04,8.44-1.21,3.45-4.99,5.25-8.44,4.04-3.43-1.21-6.61-1.76-9.51-1.77,3.7,3.57,6.13,8.12,7.19,12.58,2.21,9.33-1.32,18.17-8.98,22.53-.31.18-.64.33-.98.45l-1.18.44c-.36.13-.73.24-1.11.3-1.14.21-2.27.31-3.39.31Zm-5.38-29.72c-2.64,3.86-2.35,8.61-.65,12.01.75,1.5,2.86,4.82,6.57,4.45,3.16-2.13,2.63-6.08,2.24-7.72-.87-3.68-3.68-7.49-8.16-8.74Z" fill="#3f4243" stroke-width="0"/></g><g id="_上捲線"><path d="m176.99,106.61c-2.09,0-4.14-.99-5.42-2.84-.32-.46-7.78-11.49-5.53-25.66,2.15-13.51,8.36-19.63,17.6-26.33,2.82-10.95,10.81-18.89,23.29-23.09,14.74-4.96,29.92-.67,30.56-.49,3.51,1.02,5.53,4.69,4.51,8.19-1.01,3.5-4.67,5.52-8.18,4.52h0c-.12-.03-11.94-3.3-22.67.31-3.45,1.16-6.3,2.64-8.58,4.47,5.11.53,9.83,2.62,13.41,5.48,7.49,5.98,10.16,15.12,6.8,23.28-.14.33-.3.65-.49.96l-.66,1.07c-.2.33-.43.64-.69.92-5.85,6.56-15.2,8.15-23.82,4.05-5.2-2.47-10.08-7.08-12.63-13.19-2.96,3.16-4.54,6.56-5.39,11.91-1.4,8.83,3.33,16.04,3.38,16.11,2.02,3.02,1.24,7.13-1.77,9.17-1.14.78-2.44,1.15-3.72,1.15Zm18.93-46.97c.3,4.67,3.45,8.23,6.89,9.86,1.51.72,5.21,2.04,7.92-.54,1.18-3.62-1.67-6.41-3-7.46-2.95-2.36-7.51-3.63-11.81-1.86Z" fill="#3f4243" stroke-width="0"/></g><path id="_電話" d="m261.5,256.02s-23.36-34.85-34.66-51.71c-11.3-16.86-21.38-12.74-21.38-12.74,0,0-25.82,14.44-36.71,21.74-51.73-39.45-70.59-96.96-70.51-105.2,10.89-7.3,34.06-25.69,34.06-25.69,0,0,7.64-7.75-3.66-24.62-11.3-16.86-34.66-51.71-34.66-51.71,0,0-5.56-8.65-15.94-5.32,0,0-38.35,14.1-45.71,41.54-7.34,27.36-1.76,214.87,172.24,256.98,28.18,3.62,55.79-26.49,55.79-26.49,7.02-8.34,1.13-16.77,1.13-16.77Z" fill="#9fecff" stroke-width="0"/></svg>