<?xml version="1.0" encoding="UTF-8"?><svg id="_圖層_1" xmlns="http://www.w3.org/2000/svg" viewBox="0 0 300 300"><circle cx="150.09" cy="149.91" r="149.91" fill="#9fecff" opacity=".99" stroke-width="0"/><path d="m61.02,154.42c-1.62,0-3.24-.59-4.51-1.78-2.68-2.49-2.83-6.69-.34-9.37l64.11-68.94c2.49-2.68,6.69-2.83,9.37-.34,2.68,2.49,2.83,6.69.34,9.37l-64.11,68.94c-1.31,1.4-3.08,2.11-4.86,2.11Z" fill="#3f4243" stroke-width="0"/><path d="m246.69,152c-1.62,0-3.24-.59-4.51-1.78l-68.94-64.11c-2.68-2.49-2.83-6.69-.34-9.37,2.49-2.68,6.69-2.83,9.37-.34l68.94,64.11c2.68,2.49,2.83,6.69.34,9.37-1.31,1.4-3.08,2.11-4.86,2.11Z" fill="#3f4243" stroke-width="0"/><path d="m118.41,234.77c-9.8,0-17.53-3.74-22.4-11.05-19.84-29.76,36.1-89.75,42.54-96.5,2.53-2.65,6.72-2.74,9.37-.21,2.65,2.53,2.74,6.72.21,9.37-21.49,22.51-51.66,64.14-41.1,79.98,4.67,7.01,14.96,5.6,22.76,3.18,9.41-2.92,18.55-8.13,26.12-13.77-5.46-4.76-8.81-10.62-8.64-16.27.4-12.72,13.76-22.48,25.06-22.48.06,0,.12,0,.18,0,9.48.09,15.7,6.61,15.82,16.62.07,5.66-3.41,12.22-8.99,18.69,7.35,1.04,18.72-.36,25.43-16.15,1.43-3.37,5.33-4.94,8.7-3.51,3.37,1.43,4.94,5.33,3.51,8.7-8.01,18.84-23.93,27.63-42.57,23.53-2.15-.47-4.24-1.1-6.24-1.87-10.33,8.41-23.1,15.64-34.48,19.16-5.52,1.71-10.66,2.56-15.32,2.56Zm53.94-54.48c-4.94,0-11.64,4.73-11.8,9.63-.05,1.62,2.04,4.49,5.63,7.09,5.57-5.52,8.96-10.52,8.92-13.19-.05-3.51-1.27-3.52-2.69-3.53h-.07Z" fill="#3f4243" stroke-width="0"/></svg>