<?xml version="1.0" encoding="UTF-8"?><svg id="_圖層_1" xmlns="http://www.w3.org/2000/svg" viewBox="0 0 300 300"><path d="m150,260.23c5.68,0,11.31-.35,16.87-1.04v40.76h-37.5v-41.29c6.77,1.04,13.66,1.57,20.63,1.57Z" fill="#3f4243" stroke-width="0"/><circle cx="150" cy="125.79" r="125.44" fill="#9fecff" stroke-width="0"/><rect x="75.57" y="49.55" width="150.15" height="146.39" rx="16.46" ry="16.46" fill="#3f4243" stroke-width="0"/><rect x="94.21" y="70.4" width="113.68" height="53.28" rx="7.53" ry="7.53" fill="#9fecff" stroke-width="0"/><circle cx="110.94" cy="163.55" r="14.28" fill="#9fecff" stroke-width="0"/><circle cx="185.39" cy="163.55" r="14.28" fill="#9fecff" stroke-width="0"/><rect x="62.79" y="80.26" width="22.96" height="38.85" rx="2.83" ry="2.83" fill="#3f4243" stroke-width="0"/><rect x="107.6" y="185.49" width="16.28" height="23.89" rx="2.83" ry="2.83" fill="#3f4243" stroke-width="0"/><rect x="175.44" y="185.49" width="16.28" height="23.89" rx="2.83" ry="2.83" fill="#3f4243" stroke-width="0"/><rect x="214.25" y="80.26" width="22.96" height="38.85" rx="2.83" ry="2.83" fill="#3f4243" stroke-width="0"/></svg>