<?xml version="1.0" encoding="UTF-8"?><svg id="_圖層_1" xmlns="http://www.w3.org/2000/svg" viewBox="0 0 300 300"><g id="_上捲線"><path d="m63.2,265.91c-11.77,0-28.32-8.27-30.22-9.24-2.92-1.49-4.08-5.07-2.59-7.99,1.49-2.92,5.07-4.08,7.99-2.6,4.55,2.32,17.96,8.3,25.33,7.93,1.92-.08,3.65-.34,5.21-.78-3.01-1.59-5.52-3.87-7.3-6.39-4.5-6.37-4.52-14.14-.03-19.78.2-.25.42-.49.66-.71l.72-.66c.26-.23.53-.44.82-.63,6.08-3.83,13.77-2.97,19.59,2.19,3.2,2.83,5.79,7.01,6.66,11.79,2.29-1.59,3.75-3.56,5.22-6.7,2.64-5.62,2.48-16,2.19-19.52-.26-3.27,2.17-6.14,5.44-6.41,3.27-.27,6.14,2.16,6.41,5.43.13,1.61,1.18,16.05-3.28,25.55-4.56,9.72-10.8,13.17-18.97,16.14-4.62,7.64-12.46,11.89-22.84,12.34-.34.01-.68.02-1.02.02Zm7.4-31.03c-1.18,1.99.09,4.2.73,5.1,1.45,2.05,4.06,3.73,7.04,3.63.42-3-.97-5.78-2.86-7.45-.81-.72-2.84-2.2-4.91-1.28Z" fill="#3f4243" stroke-width="0"/></g><rect x="213.85" y="134.8" width="22.19" height="22.19" rx="2.83" ry="2.83" fill="#3f4243" stroke-width="0"/><path d="m89,112.3l-11.54-4.21c-1.94-.71-2.94-2.85-2.24-4.8l2.09-5.77c.78-2.15,19.74-52.71,78-67.91l5.96-1.56c2-.52,4.05.68,4.57,2.68l3.11,11.92c.52,2-.68,4.05-2.68,4.57l-5.96,1.56c-47.93,12.51-63.74,53.78-64.39,55.53l-2.14,5.76c-.72,1.93-2.86,2.92-4.79,2.22Z" fill="#9fecff" stroke-width="0"/><path d="m295.79,272.02h-83.84c-2.31,0-4.19-1.87-4.19-4.19v-116.23c0-2.31,1.87-4.19,4.19-4.19h27.68c.76,0,1.51.21,2.17.61l56.15,34c1.25.76,2.02,2.12,2.02,3.58v82.23c0,2.31-1.87,4.19-4.19,4.19Z" fill="#9fecff" stroke-width="0"/><rect x="13.12" y="187.74" width="42.28" height="79.48" rx="2.83" ry="2.83" transform="translate(92.73 4.99) rotate(23.29)" fill="#3f4243" stroke-width="0"/><rect x="34.37" y="96.45" width="110.35" height="113.59" rx="2.83" ry="2.83" transform="translate(67.89 -22.92) rotate(23.29)" fill="#9fecff" stroke-width="0"/></svg>