<?xml version="1.0" encoding="UTF-8"?><svg id="_圖層_1" xmlns="http://www.w3.org/2000/svg" viewBox="0 0 300 300"><circle id="_人頭" cx="195.35" cy="71.89" r="71.89" fill="#9fecff" stroke-width="0"/><path id="_人身" d="m284.65,299.75H106.04c3.5-71.26,42.16-127.4,89.31-127.4s85.8,56.14,89.31,127.4Z" fill="#9fecff" stroke-width="0"/><ellipse id="_嬰兒" cx="77.8" cy="219.05" rx="58.14" ry="89.57" transform="translate(-110.77 83.12) rotate(-34.66)" fill="#3f4243" stroke-width="0"/><ellipse id="_嬰兒臉" cx="52.92" cy="181.84" rx="26.79" ry="26.45" transform="translate(-89.15 56.61) rotate(-32.38)" fill="#9fecff" stroke-width="0"/><g id="_嬰兒毛"><path d="m26.38,133.15c-2.15,0-4.26-1.05-5.53-2.98-6.46-9.83-6.11-17.62-4.21-26.93-4.47-8.7-3.94-18.45,1.59-28.39,6.55-11.79,18.78-17.9,19.29-18.15,3.28-1.61,7.24-.26,8.85,3.02,1.61,3.27.26,7.23-3,8.85-.2.1-9.11,4.67-13.58,12.72-.96,1.72-1.67,3.38-2.15,4.98,3.15-1.81,6.62-2.8,9.91-3.01,8.61-.54,15.85,3.9,18.56,11.36.12.34.22.68.28,1.04l.2,1.05c.07.38.11.76.11,1.15.09,7.9-5.14,14.62-13.32,17.11-4.44,1.35-9.76,1.39-14.68-.47.2,2.93,1.2,5.36,3.22,8.44,2.01,3.05,1.16,7.15-1.9,9.16-1.12.74-2.38,1.09-3.63,1.09Zm4.75-32.38c2.51,2.02,5.8,2.3,8.38,1.51,1.11-.34,3.57-1.34,3.91-3.7-1.15-2.14-3.85-2.22-5.03-2.14-2.67.17-5.64,1.58-7.26,4.33Z" fill="#3f4243" stroke-width="0"/></g></svg>