<?xml version="1.0" encoding="UTF-8"?><svg id="_圖層_1" xmlns="http://www.w3.org/2000/svg" viewBox="0 0 300 300"><path d="m150,74.62v181.7c0-16.41-33.58-29.72-75-29.72S0,239.91,0,256.32V74.62c0-16.41,33.58-29.72,75-29.72s75,13.31,75,29.72Z" fill="#9fecff" opacity=".99" stroke-width="0"/><path d="m300,74.62v181.7c0-16.41-33.58-29.72-75-29.72s-75,13.31-75,29.72V74.62c0-16.41,33.58-29.72,75-29.72s75,13.31,75,29.72Z" fill="#9fecff" opacity=".99" stroke-width="0"/><path d="m104.64,164.72h-.88c-.25,0-.5-.03-.75-.07-5.48-.93-9.4-4.8-10.5-10.35-.97-4.91.47-10.19,3.65-14.38-9.44-3.73-31.22-8.48-65.74,5.57-2.37.97-5.07-.17-6.03-2.54-.96-2.37.18-5.07,2.54-6.03,43.71-17.78,69.23-7.87,77.38-3.44,8.71-4.2,16.35-2.21,21.52-.22,2.39.92,3.58,3.59,2.67,5.98-.91,2.39-3.59,3.58-5.98,2.67-3.41-1.31-6.39-1.83-9.18-1.53,2.59,3.66,3.48,8.13,3.03,12-.75,6.46-5.05,11.28-10.95,12.29-.26.04-.52.07-.78.07Zm-.12-20.34c-2.49,2.46-3.39,5.73-2.92,8.12.44,2.2,1.82,2.76,2.61,2.95,2.3-.61,2.83-3.08,2.96-4.15.27-2.33-.49-5.11-2.65-6.92Z" fill="#3f4243" stroke-width="0"/><path d="m28.68,190.21c-1.83,0-3.56-1.09-4.29-2.89-.96-2.37.18-5.07,2.54-6.03,47.5-19.33,84.96-9.01,98.86-3.68,2.39.92,3.6,3.6,2.69,5.99-.92,2.39-3.58,3.59-5.96,2.67,0,0-.04-.02-.04-.02-12.87-4.94-47.61-14.47-92.06,3.61-.57.23-1.16.34-1.74.34Z" fill="#3f4243" stroke-width="0"/><path d="m272.74,190.21c1.83,0,3.56-1.09,4.29-2.89.96-2.37-.18-5.07-2.54-6.03-47.5-19.33-84.96-9.01-98.86-3.68-2.39.92-3.6,3.6-2.69,5.99.92,2.39,3.58,3.59,5.96,2.67,0,0,.04-.02.04-.02,12.87-4.94,47.61-14.47,92.06,3.61.57.23,1.16.34,1.74.34Z" fill="#3f4243" stroke-width="0"/><path d="m48.28,120.61c-.26,0-.52-.02-.78-.07-5.9-1.01-10.2-5.83-10.95-12.29-.45-3.88.44-8.34,3.03-12-2.8-.29-5.77.22-9.18,1.53-2.39.92-5.07-.28-5.98-2.66-.92-2.39.28-5.07,2.66-5.98,3.01-1.15,11.63-4.46,21.48.22,8.35-4.69,35.02-15.88,77.39,1.67,2.36.98,3.48,3.69,2.51,6.05-.98,2.36-3.69,3.48-6.05,2.51-33.93-14.06-56.19-8.17-65.78-3.93,3.26,4.21,4.76,9.56,3.77,14.54-1.1,5.55-5.02,9.42-10.5,10.35-.25.04-.5.06-.75.07h-.85s-.02,0-.03,0Zm.12-20.34c-2.15,1.81-2.92,4.59-2.65,6.92.12,1.07.66,3.54,2.96,4.15.79-.18,2.17-.75,2.61-2.95.47-2.39-.43-5.66-2.92-8.12Z" fill="#3f4243" stroke-width="0"/><path d="m217.18,158.39c-.26,0-.52-.02-.78-.07-5.9-1.01-10.2-5.83-10.95-12.29-.38-3.29.2-7.01,1.98-10.31-9.1.62-22.74,3.94-28.52,6.16-2.39.92-5.07-.28-5.98-2.67-.92-2.39.28-5.06,2.67-5.98.29-.11,27.93-9.44,41.2-6,5.91-3.44,21.2-6.61,57.84,9.72,2.34,1.04,3.38,3.78,2.34,6.11-1.04,2.34-3.78,3.38-6.11,2.34-25.53-11.38-38.68-12.33-44.94-11.46,2.99,4.13,4.32,9.24,3.38,14.01-1.1,5.55-5.02,9.42-10.5,10.35-.25.04-.5.06-.75.07h-.85s-.02,0-.03,0Zm.12-20.34c-2.16,1.81-2.92,4.59-2.65,6.92.12,1.07.66,3.54,2.96,4.15.79-.18,2.17-.75,2.61-2.95.47-2.39-.43-5.66-2.92-8.12Z" fill="#3f4243" stroke-width="0"/><path d="m253.15,120.61h-.88c-.25,0-.5-.03-.75-.07-5.48-.93-9.4-4.8-10.5-10.35-.98-4.98.51-10.33,3.77-14.54-9.57-4.23-31.83-10.14-65.78,3.93-2.35.98-5.07-.14-6.05-2.51-.98-2.36.14-5.07,2.51-6.05,42.34-17.55,69.01-6.37,77.38-1.68,8.69-4.18,16.33-2.19,21.49-.21,2.39.92,3.58,3.59,2.67,5.98-.91,2.39-3.59,3.58-5.98,2.67-3.41-1.31-6.38-1.83-9.18-1.53,2.59,3.66,3.48,8.13,3.03,12-.75,6.46-5.05,11.28-10.95,12.29-.26.04-.52.07-.78.07Zm-.12-20.34c-2.49,2.46-3.39,5.73-2.92,8.12.44,2.2,1.82,2.76,2.61,2.95,2.3-.61,2.83-3.08,2.96-4.15.27-2.33-.49-5.11-2.65-6.92Z" fill="#3f4243" stroke-width="0"/><path d="m149.9,261.24c-2.56,0-4.63-2.07-4.63-4.63V64.38c0-2.56,2.07-4.63,4.63-4.63s4.63,2.07,4.63,4.63v192.23c0,2.56-2.07,4.63-4.63,4.63Z" fill="#3f4243" stroke-width="0"/></svg>