<?xml version="1.0" encoding="UTF-8"?><svg id="_圖層_1" xmlns="http://www.w3.org/2000/svg" viewBox="0 0 300 300"><path d="m291.27,156.38L152.74,1.26c-1.5-1.68-4.13-1.68-5.63,0L8.59,156.38c-2.17,2.43-.45,6.29,2.81,6.29h32.95c2.08,0,3.77,1.69,3.77,3.77v129.78c0,2.08,1.69,3.77,3.77,3.77h196.05c2.08,0,3.77-1.69,3.77-3.77v-129.78c0-2.08,1.69-3.77,3.77-3.77h32.95c3.26,0,4.99-3.86,2.81-6.29Zm-142.06,13.41c-20.74,0-37.55-16.81-37.55-37.55s16.81-37.55,37.55-37.55,37.55,16.81,37.55,37.55-16.81,37.55-37.55,37.55Z" fill="#9fecff" stroke-width="0"/><g id="_上捲線"><path d="m179.4,154.08c-11.89,0-18.95-7.96-23.77-15.76-9.93-3.73-16.62-12.38-16.62-21.91v-36.28c0-3.68,2.98-6.66,6.66-6.66s6.66,2.98,6.66,6.66v36.28c0,.73.13,1.51.39,2.28,1.07-2.91,2.72-5.48,4.69-7.51,5.61-5.8,13.51-7.29,20.13-3.81.32.17.63.36.91.58l.77.58c.31.23.6.5.86.78,5.08,5.46,5.69,13.45,1.57,20.36-2.03,3.4-5.25,6.5-9.28,8.39,2.21,1.88,4.46,2.7,7.05,2.7,18.5,0,25.8-.37,25.88-.38,3.66-.21,6.8,2.63,7,6.3s-2.63,6.8-6.3,7c-.31.02-7.73.39-26.57.39Zm-9.33-35.24c-1.38,0-2.57,1.05-3.1,1.6-1.43,1.47-2.42,3.73-2.14,6.11,2.39-.35,4.33-1.92,5.39-3.69.55-.92,1.27-2.56.5-3.94-.22-.05-.43-.08-.64-.08Z" fill="#3f4243" stroke-width="0"/></g></svg>