<?xml version="1.0" encoding="UTF-8"?><svg id="_圖層_1" xmlns="http://www.w3.org/2000/svg" viewBox="0 0 300 300"><path id="_女生身體" d="m141.12,202.17h-37.55c-.33.01-.67.04-1,.04s-.67-.02-1-.04h-37.55c-2.31,0-3.89-2.34-3.04-4.48,0,0,5.46-40.94,6.5-49.53,3.71-30.8,15.71-54.06,35.09-54.06s31.36,20.55,35.09,54.06c.96,8.6,6.5,49.53,6.5,49.53.86,2.15-.72,4.48-3.04,4.48Z" fill="#9fecff" stroke-width="0"/><circle id="_女生人頭" cx="102.62" cy="54.77" r="28.16" fill="#9fecff" stroke-width="0"/><path id="_男生身體" d="m235.98,94.14h-37.55c-.33-.01-.67-.04-1-.04s-.67.02-1,.04h-37.55c-2.31,0-3.89,2.34-3.04,4.48,0,0,5.46,40.94,6.5,49.53,3.71,30.8,15.71,54.06,35.09,54.06s31.36-20.55,35.09-54.06c.96-8.6,6.5-49.53,6.5-49.53.86-2.15-.72-4.48-3.04-4.48Z" fill="#9fecff" stroke-width="0"/><circle id="_男生人頭" cx="197.43" cy="54.77" r="28.16" fill="#9fecff" stroke-width="0"/><g id="_雙手"><path d="m108.04,279.17c-1.02,0-2.06-.08-3.1-.25-7.53-1.21-14.94-6.7-19.35-14.31-8.53-14.73-6.92-36.73-6.85-37.66.28-3.64,3.47-6.39,7.11-6.08,3.64.28,6.36,3.46,6.08,7.1h0c-.01.19-1.34,18.86,5.11,30.01,1.75,3.02,4.46,5.58,7.18,6.93-3.4-7.29-4.04-15.62-2.83-21.91,1.47-7.6,5.61-13.14,11.36-15.2.75-.27,1.55-.4,2.35-.39l1.58.03c.72.01,1.44.14,2.12.39,5.75,2.06,9.89,7.61,11.36,15.2,1.21,6.26.58,14.54-2.78,21.8,2.66-1.37,5.31-3.9,7.03-6.87,5.39-9.32,5.59-24.84,5.21-30.04-.27-3.64,2.47-6.81,6.11-7.08,3.64-.3,6.81,2.47,7.08,6.11.07.93,1.57,22.91-6.95,37.63-4.41,7.62-11.81,13.11-19.3,14.31-3.77.61-7.45.1-10.77-1.44-2.42,1.13-5.05,1.72-7.76,1.72Zm7.73-37.51c-.55.89-1.06,2.17-1.39,3.85-.72,3.73-.33,8.63,1.4,12.86,1.72-4.23,2.11-9.11,1.39-12.84-.33-1.7-.84-2.99-1.4-3.88Z" fill="#3f4243" stroke-width="0"/></g><path d="m192.93,280.47c-6.4,0-12.62-2-17.91-5.82-6.64-4.8-11.02-11.9-12.32-20-2.69-16.7,8.72-32.48,25.42-35.17,10.77-1.72,21.74,2.44,28.65,10.88,2.31,2.83,1.9,7-.93,9.31-2.83,2.31-6.99,1.9-9.31-.93-3.93-4.81-10.19-7.18-16.3-6.2-9.5,1.53-15.99,10.51-14.46,20.01.74,4.6,3.23,8.64,7.01,11.38s8.39,3.83,13,3.09c4.52-.73,8.51-3.15,11.24-6.82,2.18-2.94,6.32-3.55,9.25-1.37,2.93,2.18,3.54,6.32,1.37,9.25-4.8,6.46-11.81,10.72-19.76,11.99-1.65.27-3.3.4-4.94.4Z" fill="#3f4243" stroke-width="0"/></svg>