<?xml version="1.0" encoding="UTF-8"?><svg id="_圖層_1" xmlns="http://www.w3.org/2000/svg" viewBox="0 0 300 300"><rect id="_右邊手扶梯" x="245.04" y="93.2" width="40.78" height="202.43" rx="2.83" ry="2.83" fill="#9fecff" stroke-width="0"/><rect id="_左邊手扶梯" x="12.17" y="93.2" width="40.78" height="202.43" rx="2.83" ry="2.83" fill="#9fecff" stroke-width="0"/><path d="m293.31,300H6.21c-3.65,0-6.6-2.96-6.6-6.6s2.96-6.6,6.6-6.6h287.1c3.65,0,6.6,2.96,6.6,6.6s-2.96,6.6-6.6,6.6Z" fill="#3f4243" stroke-width="0"/><circle id="_人頭" cx="149.74" cy="42.21" r="28.06" fill="#9fecff" stroke-width="0"/><ellipse id="_人身" cx="149.74" cy="135.26" rx="34.95" ry="53.85" fill="#9fecff" stroke-width="0"/><path d="m129.45,275.59c-3.65,0-6.6-2.96-6.6-6.6v-68.19c0-3.65,2.96-6.6,6.6-6.6s6.6,2.96,6.6,6.6v68.19c0,3.65-2.96,6.6-6.6,6.6Z" fill="#3f4243" stroke-width="0"/><path d="m170.03,275.59c-3.65,0-6.6-2.96-6.6-6.6v-68.19c0-3.65,2.96-6.6,6.6-6.6s6.6,2.96,6.6,6.6v68.19c0,3.65-2.96,6.6-6.6,6.6Z" fill="#3f4243" stroke-width="0"/><g id="_雙手"><path d="m148.72,152.2c-.37,0-.74-.03-1.11-.09-11.61-1.98-20.08-11.57-21.57-24.42-.99-8.57,1.22-18.55,7.58-26.32-7.35.47-14.71,3.72-22.03,9.72-14.18,11.63-19.74,30.47-19.8,30.66-1.01,3.5-4.66,5.53-8.16,4.52-3.5-1-5.53-4.64-4.54-8.15.26-.93,6.67-22.93,24.12-37.25,14.88-12.21,30.89-15.76,46.51-10.36,15.64-5.43,31.68-1.89,46.59,10.34,17.45,14.31,23.86,36.32,24.12,37.24,1,3.51-1.04,7.16-4.55,8.16-3.5.99-7.15-1.03-8.15-4.53h0c-.05-.19-5.62-19.03-19.8-30.66-7.34-6.02-14.73-9.27-22.1-9.72,6.35,7.74,8.56,17.69,7.57,26.24-1.5,12.91-10,22.53-21.66,24.52-.36.06-.71.09-1.07.09h-1.92s-.02.01-.04.01Zm1.01-47.33c-8.45,4.69-11.44,13.84-10.58,21.29.3,2.61,1.92,11.1,10.16,12.83h.69c8.34-1.73,9.97-10.31,10.28-12.93.86-7.42-2.13-16.53-10.55-21.19Z" fill="#3f4243" stroke-width="0"/></g></svg>