<?xml version="1.0" encoding="UTF-8"?><svg id="_圖層_1" xmlns="http://www.w3.org/2000/svg" viewBox="0 0 300 300"><path d="m6.58,299.97c-2.35,0-4.63-1.26-5.82-3.47-1.74-3.21-.54-7.22,2.68-8.96l94.08-50.81c3.21-1.74,7.22-.54,8.96,2.68,1.74,3.21.54,7.22-2.68,8.96l-94.08,50.81c-1,.54-2.07.8-3.14.8Z" fill="#3f4243" stroke-width="0"/><path d="m293.38,299.97c-1.06,0-2.14-.26-3.14-.8l-94.08-50.81c-3.21-1.74-4.41-5.75-2.68-8.96,1.74-3.21,5.75-4.41,8.96-2.68l94.08,50.81c3.21,1.74,4.41,5.75,2.68,8.96-1.2,2.21-3.47,3.47-5.82,3.47Z" fill="#3f4243" stroke-width="0"/><path id="_垃圾桶" d="m181.41,30.98c-.69-.61-1.57-.94-2.48-.94h-26.68s-1.14,0-1.14,0h-26.68c-.92,0-1.8.34-2.48.94l-21.29,18.86h50.46s1.14,0,1.14,0h50.46s-21.29-18.86-21.29-18.86Z" fill="#3f4243" stroke-width="0"/><path d="m233.09,49.83H68.04c-14.09,0-25.51,11.43-25.51,25.52v171.78c0,1.56,1.27,2.83,2.83,2.83h210.41c1.56,0,2.83-1.27,2.83-2.83V75.35c0-14.09-11.42-25.52-25.51-25.52Zm1.14,98.51c0,1.57-1.27,2.83-2.84,2.83H70.85c-1.57,0-2.84-1.26-2.84-2.83v-61.51c0-4.69,3.81-8.5,8.51-8.5h149.2c4.7,0,8.51,3.81,8.51,8.5v61.51Z" fill="#9fecff" stroke-width="0"/><g id="_雙手"><path d="m93.96,226.74h-.05l-2.4-.02c-.36,0-.71-.03-1.06-.09-9.08-1.55-15.7-8.98-16.85-18.92-.7-6.04.66-11.98,3.58-16.97-3.55.98-7.13,2.95-10.76,5.93-2.82,2.32-6.99,1.9-9.3-.92-2.32-2.82-1.91-6.99.92-9.3,11.07-9.08,23-11.82,34.7-7.99,11.71-3.85,23.67-1.12,34.76,7.97,2.82,2.32,3.23,6.48.92,9.3-2.32,2.82-6.48,3.23-9.3.92-3.64-2.99-7.22-4.97-10.79-5.94,2.94,5.01,4.31,10.97,3.61,17.02-1.15,9.94-7.77,17.37-16.85,18.92-.37.06-.74.09-1.11.09Zm-1.73-13.24h1.1c4.27-1.02,5.24-5.41,5.46-7.3.51-4.42-1.22-10.1-6.04-13.29-4.8,3.19-6.53,8.85-6.01,13.27.22,1.9,1.2,6.31,5.5,7.32Z" fill="#3f4243" stroke-width="0"/></g><g id="_雙手-2"><path d="m208.34,226.74h-.05l-2.4-.02c-.36,0-.71-.03-1.06-.09-9.08-1.55-15.7-8.98-16.85-18.92-.7-6.04.66-11.98,3.58-16.97-3.55.98-7.13,2.95-10.76,5.93-2.82,2.32-6.99,1.9-9.3-.92-2.32-2.82-1.91-6.99.92-9.3,11.07-9.08,23-11.82,34.7-7.99,11.71-3.85,23.67-1.12,34.76,7.97,2.82,2.32,3.23,6.48.92,9.3-2.32,2.82-6.48,3.23-9.3.92-3.64-2.99-7.22-4.97-10.79-5.94,2.94,5.01,4.31,10.97,3.61,17.02-1.15,9.94-7.77,17.37-16.85,18.92-.37.06-.74.09-1.11.09Zm-1.73-13.24h1.1c4.27-1.02,5.24-5.41,5.46-7.3.51-4.42-1.22-10.1-6.04-13.29-4.8,3.19-6.53,8.85-6.01,13.27.22,1.9,1.2,6.31,5.5,7.32Z" fill="#3f4243" stroke-width="0"/></g></svg>