<?xml version="1.0" encoding="UTF-8"?><svg id="_圖層_1" xmlns="http://www.w3.org/2000/svg" viewBox="0 0 300 300"><rect x="197.67" y="169.14" width="48.85" height="17.44" transform="translate(399.95 -44.23) rotate(90)" fill="#3f4243" stroke-width="0"/><rect x="245.81" y="169.14" width="48.85" height="17.44" transform="translate(448.1 -92.37) rotate(90)" fill="#3f4243" stroke-width="0"/><rect x="192.75" y="103.31" width="106.82" height="59.17" rx="2.83" ry="2.83" fill="#9fecff" stroke-width="0"/><path d="m300,204v34c0,2.08-1.68,3.76-3.76,3.76h-106.78c-2.61,0-4.44-2.6-3.52-5.04,3.71-9.76,4.2-21.37,1.17-31.6-.72-2.43,1.04-4.87,3.58-4.87h105.56c2.08,0,3.76,1.68,3.76,3.76Z" fill="#3f4243" stroke-width="0"/><path d="m173.7,202.87l-3.2-7.5-34.34-80.28-7.12-16.65c-4.19-9.8-12.51-15.95-21.58-15.95H-.02v35.38c.03-1.54,1.28-2.79,2.83-2.79h37.13c1.57,0,2.83,1.27,2.83,2.83v60.86c0,1.57-1.27,2.83-2.83,2.83H2.81c-1.55,0-2.8-1.24-2.83-2.79v67.31h152.14c18.26,0,30.01-23.57,21.58-43.28Zm-32.59-21.25h-68.05c-2.07,0-3.75-1.68-3.75-3.75v-59.03c0-2.07,1.68-3.75,3.75-3.75h44.31c1.53,0,2.91.93,3.48,2.35l23.73,59.03c.99,2.46-.82,5.15-3.48,5.15Z" fill="#9fecff" stroke-width="0"/><path d="m161.55,228.63c-8.29-3.18-20.58-6.36-34.55.56-16.35-7.08-28.18-4.26-40.26.58-16.9-7.74-28.98-5.01-41.27-.12-14.23-7.36-26.78-4.11-35.2-.88-3.41,1.31-5.12,5.13-3.81,8.54,1.31,3.41,5.13,5.12,8.55,3.81,6.27-2.4,11.65-3.19,16.74-2.33-4.73,5.94-6.37,13.48-5.62,19.97,1.16,10.04,7.83,17.54,16.98,19.1.37.06.74.09,1.11.09h1.41c.36-.01.72-.04,1.07-.1,8.48-1.45,14.56-7.44,16.26-16.04,1.5-7.61-.69-15.78-5.56-22.32,5.09-1.41,10.06-1.84,15.78-.52-4.62,5.91-6.24,13.35-5.49,19.78,1.16,10.04,7.83,17.54,16.98,19.1.37.06.74.09,1.11.09h1.41c.36-.01.72-.04,1.07-.1,8.48-1.45,14.56-7.44,16.26-16.04,1.5-7.61-.69-15.78-5.56-22.32,5.08-1.41,10.04-1.84,15.75-.52-5.07,6.59-7.39,14.94-5.86,22.7,1.7,8.6,7.78,14.6,16.26,16.04.36.06.71.09,1.07.09h1.37s.03,0,.04,0c.37,0,.74-.03,1.11-.09,9.15-1.56,15.81-9.06,16.98-19.1.75-6.49-.89-14.03-5.62-19.97,5.09-.86,10.47-.07,16.74,2.33,3.42,1.31,7.24-.4,8.55-3.81,1.31-3.41-.4-7.24-3.81-8.55Zm-111.56,30.62c-.6,3.01-2.29,4.85-5.04,5.47h-.08c-4.49-1.08-5.41-5.97-5.58-7.49-.49-4.23.99-9.33,5.19-12.43,4.67,4.25,6.37,10.17,5.52,14.45Zm41.56,0c-.6,3.01-2.29,4.85-5.04,5.47h-.08c-4.49-1.08-5.41-5.97-5.58-7.49-.49-4.23.99-9.33,5.19-12.43,4.67,4.25,6.36,10.17,5.52,14.45Zm41-2.16c-.18,1.52-1.09,6.41-5.58,7.49h-.08c-2.75-.62-4.45-2.46-5.05-5.48-.85-4.28.85-10.2,5.52-14.45,4.2,3.1,5.68,8.2,5.19,12.43Z" fill="#3f4243" stroke-width="0"/></svg>