<?xml version="1.0" encoding="UTF-8"?><svg id="_圖層_1" xmlns="http://www.w3.org/2000/svg" viewBox="0 0 300 300"><path id="_樓梯" d="m246.04,95.44v44.57c0,2.07-1.68,3.75-3.75,3.75h-46.46c-2.07,0-3.75,1.68-3.75,3.75v44.57c0,2.07-1.68,3.75-3.75,3.75h-46.46c-2.07,0-3.75,1.68-3.75,3.75v44.57c0,2.07-1.68,3.75-3.75,3.75h-46.46c-2.07,0-3.75,1.68-3.75,3.75v44.57c0,2.07,1.68,3.75,3.75,3.75h208.34c2.07,0,3.75-1.68,3.75-3.75V95.44c0-2.07-1.68-3.75-3.75-3.75h-46.46c-2.07,0-3.75,1.68-3.75,3.75Z" fill="#9fecff" stroke-width="0"/><circle id="_人頭" cx="76.03" cy="45.7" r="28.1" fill="#9fecff" stroke-width="0"/><ellipse id="_人身" cx="76.03" cy="138.91" rx="35.01" ry="53.94" fill="#9fecff" stroke-width="0"/><path d="m33.72,288.42c-.6,0-1.21-.08-1.81-.25-3.51-1-5.55-4.66-4.55-8.17l21.99-77.25c1-3.51,4.66-5.56,8.17-4.55,3.51,1,5.55,4.66,4.55,8.17l-21.99,77.25c-.83,2.91-3.48,4.8-6.36,4.8Z" fill="#3f4243" stroke-width="0"/><g id="_雙手"><path d="m75.01,155.88c-.37,0-.74-.03-1.11-.09-11.63-1.98-20.12-11.59-21.61-24.47-1.03-8.92,1.4-19.35,8.35-27.25-11.04-1.06-20.81,2.23-26.46,6.87-13.68,11.23-15.95,33.06-15.97,33.28-.35,3.63-3.59,6.28-7.21,5.95-3.63-.34-6.3-3.56-5.96-7.19.1-1.12,2.75-27.5,20.75-42.27,12.72-10.43,32.55-12.96,50.25-6.63,16.16-5.6,33.08-1.84,46.87,10.56,5.65,5.08,11.03,7.29,15.99,6.61,7.98-1.11,13.29-9.22,13.35-9.3,1.95-3.09,6.03-4.02,9.12-2.07,3.09,1.95,4.02,6.03,2.07,9.12-.34.55-8.58,13.38-22.72,15.35-9.01,1.26-17.98-2.07-26.66-9.88-4.4-3.95-12.1-9.27-22.02-9.68,6.45,7.78,8.69,17.81,7.69,26.42-1.5,12.93-10.01,22.57-21.69,24.56-.36.06-.72.09-1.08.09h-1.92s-.02.01-.04.01Zm1.02-47.41c-8.46,4.7-11.46,13.86-10.6,21.33.3,2.61,1.92,11.12,10.18,12.85h.69c8.35-1.74,9.99-10.32,10.29-12.96.86-7.43-2.13-16.56-10.56-21.22Z" fill="#3f4243" stroke-width="0"/></g><path d="m118.69,237.3c-3.51,0-6.44-2.76-6.6-6.3-1.22-25.88-15.54-26.18-16.08-26.18h-.01c-.05,0-.11,0-.16,0-3.58,0-6.52-2.86-6.61-6.45-.09-3.65,2.8-6.68,6.45-6.77.26,0,27.79-.23,29.63,38.79.17,3.65-2.65,6.75-6.3,6.92-.11,0-.21,0-.32,0Z" fill="#3f4243" stroke-width="0"/></svg>