<?xml version="1.0" encoding="UTF-8"?><svg id="_圖層_1" xmlns="http://www.w3.org/2000/svg" viewBox="0 0 300 300"><path d="m189,153.34l14.21-22.68c1.48-2.36.35-5.48-2.3-6.34l-88.55-28.89c-1.87-.61-3.91.13-4.95,1.8l-14.21,22.68c-1.48,2.36-.35,5.48,2.3,6.34l88.55,28.89c1.87.61,3.91-.13,4.95-1.8Z" fill="#3f4243" stroke-width="0"/><path d="m189.41,102.58c63.06-39.51,98.66-9.73,109.49,2.35,1.93,2.15,1.24,5.55-1.38,6.76l-231.09,106.48c-1.31.61-2.84.51-4.07-.26L2,179.92c-2.68-1.69-2.66-5.61.04-7.27l32.26-19.82c1.73-1.07,3.98-.77,5.36.72,6.68,7.2,26.78,26.44,45.13,19.53,22.42-8.45,104.62-70.5,104.62-70.5Z" fill="#9fecff" stroke-width="0"/><path d="m175.46,230.95h-26.76c-2.78,0-4.82-2.61-4.15-5.31l22.53-90.37c.48-1.91,2.19-3.24,4.15-3.24h26.76c2.78,0,4.82,2.61,4.15,5.31l-22.53,90.37c-.48,1.91-2.19,3.24-4.15,3.24Z" fill="#3f4243" stroke-width="0"/></svg>