<?xml version="1.0" encoding="UTF-8"?><svg id="_圖層_1" xmlns="http://www.w3.org/2000/svg" viewBox="0 0 300 300"><path d="m189.15,150.76l14.19-22.64c1.47-2.35.35-5.47-2.3-6.33l-88.43-28.85c-1.86-.61-3.9.13-4.94,1.79l-14.19,22.64c-1.47,2.35-.35,5.47,2.3,6.33l88.43,28.85c1.86.61,3.9-.13,4.94-1.79Z" fill="#3f4243" stroke-width="0"/><path d="m189.56,100.07c62.97-39.46,98.53-9.72,109.34,2.34,1.93,2.15,1.24,5.54-1.38,6.75l-230.77,106.33c-1.31.6-2.84.51-4.06-.26L2.41,177.3c-2.68-1.69-2.66-5.6.04-7.26l32.21-19.79c1.73-1.06,3.97-.77,5.35.72,6.67,7.19,26.74,26.41,45.07,19.5,22.39-8.44,104.47-70.4,104.47-70.4Z" fill="#9fecff" stroke-width="0"/><path d="m175.63,228.26h-26.72c-2.78,0-4.82-2.61-4.14-5.31l22.5-90.25c.47-1.9,2.18-3.24,4.14-3.24h26.72c2.78,0,4.82,2.61,4.14,5.31l-22.5,90.25c-.47,1.9-2.18,3.24-4.14,3.24Z" fill="#3f4243" stroke-width="0"/><path d="m284.38,193.88c-4.94-6.42-20.24-24.17-38.35-24.17s-33.4,17.75-38.35,24.17c-1.04,1.35-1.04,3.22,0,4.57,4.94,6.42,20.24,24.17,38.35,24.17s33.4-17.75,38.35-24.17c1.04-1.35,1.04-3.22,0-4.57Zm-38.35,17.37c-8.33,0-15.08-6.75-15.08-15.08s6.75-15.08,15.08-15.08,15.08,6.75,15.08,15.08-6.75,15.08-15.08,15.08Z" fill="#9fecff" stroke-width="0"/></svg>