<?xml version="1.0" encoding="UTF-8"?><svg id="_圖層_1" xmlns="http://www.w3.org/2000/svg" viewBox="0 0 300 300"><path id="_滅火器身" d="m184.34,78.54h54.7c14.08,0,25.51,11.43,25.51,25.51v180.21h-105.73V104.06c0-14.08,11.43-25.51,25.51-25.51Z" fill="#9fecff" stroke-width="0"/><rect id="_滅火器身-2" x="184.17" y="49.93" width="55.04" height="43.67" fill="#9fecff" stroke-width="0"/><rect id="_滅火器底" x="150.91" y="250.2" width="121.55" height="49.8" rx="2.83" ry="2.83" fill="#3f4243" stroke-width="0"/><path d="m263.09,64.53c-.34,0-.68-.03-1.02-.08l-89.53-13.9c-2.87-.45-5.12-2.72-5.53-5.6-.41-2.88,1.12-5.69,3.76-6.91L251.32.62c3.31-1.53,7.24-.1,8.77,3.21s.1,7.23-3.21,8.77l-60.81,28.24,68.01,10.56c3.61.56,6.07,3.93,5.51,7.54-.51,3.26-3.32,5.59-6.52,5.59Z" fill="#3f4243" stroke-width="0"/><g id="_滅火器管"><path d="m85.17,115.13c-.58,0-1.17-.08-1.76-.24-3.52-.97-5.58-4.6-4.61-8.12.17-.61,4.19-15.17,8.52-27.33,4.17-11.71,11.81-19.15,22.19-21.68,6.3-8.35,12.42-14.32,25.15-16.12,11.13-1.57,19.6-2.17,19.96-2.2,3.62-.28,6.79,2.49,7.05,6.12.26,3.64-2.49,6.79-6.12,7.05-.08,0-8.4.6-19.04,2.1-4.67.66-7.75,1.95-10.58,4.36,5.49,2.59,9.59,7.18,11.78,12.01,3.78,8.32,2.09,17.25-4.29,22.74-.29.25-.6.48-.94.67l-1.02.6c-.31.18-.63.34-.97.47-7.87,3.07-16.58.37-22.18-6.89-2.49-3.23-4.32-7.39-4.9-11.89-1.45,1.93-2.67,4.29-3.66,7.08-4.17,11.69-8.19,26.26-8.23,26.4-.81,2.93-3.47,4.85-6.36,4.85Zm32-44.95c-1.51,3.78-.43,7.79,1.61,10.43.91,1.18,3.29,3.71,6.42,2.82,2.2-2.32,1.09-5.56.49-6.9-1.39-3.06-4.45-5.91-8.52-6.36Z" fill="#3f4243" stroke-width="0"/></g><path id="_滅火器連接" d="m177.17,52.72l-.92-8.83-.04-.36-.92-8.83-24.84-2.4c-5.36-.52-9.86,4.01-9.3,9.37l.57,5.47.04.36.57,5.47c.56,5.36,5.9,8.86,11.04,7.24l23.81-7.5Z" fill="#9fecff" stroke-width="0"/><path id="_滅火器噴子" d="m97.36,116.75c.22-3.11-1.88-5.91-4.93-6.57l-8.02-1.73-.54-.12-8.02-1.73c-3.05-.66-6.12,1.03-7.2,3.96l-22.43,60.86c-1.32,3.57.83,7.48,4.56,8.29l16.9,3.65.54.12,16.9,3.65c3.72.8,7.29-1.87,7.57-5.67l4.67-64.69Z" fill="#9fecff" stroke-width="0"/><path id="_火" d="m67.91,213.31c-2.07-1.67-5.16-.28-5.25,2.37-.11,3.11-.99,6.91-3.8,10.6-6.41,8.41-26.42,21.02-26.62,44.84-.2,23.82,34.03,37.83,54.45,22.42,17.09-12.9,13.14-35.48,6.82-44.61-1.26-1.83-3.98-1.85-5.25-.03-1.63,2.34-4.2,3.39-6.17,3.01-2.8-.53-6.41-3.9-3.6-12.71,2.42-7.61,1.06-16.5-10.57-25.88Z" fill="#9fecff" stroke-width="0"/></svg>