<?xml version="1.0" encoding="UTF-8"?><svg id="_圖層_1" xmlns="http://www.w3.org/2000/svg" viewBox="0 0 300 300"><path id="wifi底" d="m297.22,126.73l-144.97,144.97c-1.46,1.46-3.84,1.46-5.3,0L1.96,126.72c-1.48-1.48-1.48-3.89.02-5.34,82.31-79.46,212.91-79.46,295.21.01,1.5,1.45,1.5,3.86.02,5.33Z" fill="#9fecff" stroke-width="0"/><path d="m204.06,226.51c-1.69,0-3.39-.65-4.68-1.94-27.44-27.44-72.12-27.45-99.58-.01-2.59,2.58-6.77,2.58-9.35,0s-2.58-6.77,0-9.35c32.62-32.59,85.68-32.59,118.28.02,2.58,2.58,2.58,6.77,0,9.35-1.29,1.29-2.98,1.94-4.68,1.94Z" fill="#3f4243" stroke-width="0"/><path d="m234.27,196.3c-1.69,0-3.39-.65-4.68-1.94-44.11-44.1-115.88-44.11-160.01-.01-2.58,2.58-6.77,2.58-9.35,0-2.58-2.58-2.58-6.77,0-9.35,49.28-49.26,129.45-49.25,178.71.01,2.58,2.58,2.58,6.77,0,9.35-1.29,1.29-2.98,1.94-4.68,1.94Z" fill="#3f4243" stroke-width="0"/><path d="m267.16,163.4c-1.69,0-3.39-.65-4.68-1.94-62.24-62.24-163.53-62.25-225.79-.01-2.59,2.58-6.77,2.58-9.35,0-2.58-2.58-2.58-6.77,0-9.35,67.42-67.39,177.1-67.38,244.5.01,2.58,2.58,2.58,6.77,0,9.35-1.29,1.29-2.98,1.94-4.68,1.94Z" fill="#3f4243" stroke-width="0"/></svg>