<?xml version="1.0" encoding="UTF-8"?><svg id="_圖層_1" xmlns="http://www.w3.org/2000/svg" viewBox="0 0 300 300"><path d="m217.59,57.61c-2.67-4.58-7.59-7.52-13.16-7.87-2.98-.19-5.88.39-8.41,1.62-.74-7.07-2.69-14.97-7.38-20.18-3.43-3.82-8.01-5.83-13.23-5.83-3.2,0-8.63.76-13.06,5.15-.95-1.93-2.2-3.82-3.84-5.5-3.57-3.65-8.4-5.58-13.97-5.58s-10.57,1.98-14.11,5.73c-2.84,3-4.45,6.69-5.36,10.08-3.89-2.24-8.35-3.21-11.89-3.21-5.33,0-20.53,4.23-20.53,23.02,0,5.13-.09,15.29-.19,26.05-.11,11.68-.23,24.82-.24,33.27-11.43,4.85-24.53,13.97-24.53,30.27v1.58c-.02,9.2-.02,13.4,5.18,26.54,4.87,12.28,15.09,26.49,20.75,33.86,2.1,2.73,4.09,5.36,3.46,10.89-5.51,1-9.69,5.81-9.69,11.61v31.32c0,6.52,5.29,11.81,11.81,11.81h104.19c6.52,0,11.81-5.29,11.81-11.81v-31.32c0-5.31-3.5-9.79-8.32-11.28-.31-4.38-.65-10.81-.35-14.85.18-2.42,2.15-6.43,4.22-10.67,2.69-5.5,5.75-11.74,7.28-18.76,2.69-12.28,5.39-38.69,5.46-53.32,0-1.88.14-4.61.3-7.77.75-15.25,2.02-40.77-6.18-54.84Zm-4.39,54.32c-.16,3.29-.3,6.13-.31,8.25-.06,13.8-2.69,39.59-5.21,51.1-1.26,5.77-4.02,11.4-6.45,16.37-2.65,5.41-4.93,10.08-5.27,14.53-.32,4.29-.05,10.5.26,15.13h-88.49c.57-8.01-2.45-12.86-5.73-17.13-9.06-11.8-16.09-23.22-19.3-31.32-4.46-11.25-4.45-14.11-4.44-22.62v-1.59c0-15.23,19.8-21.8,28.31-23.91,2.15-.53,4.2-.8,6.09-.8,3.31,0,6.14.8,8.14,2.37,2.79,2.18,4.21,6.01,4.21,11.37,0,7.69-13.62,10.92-13.9,10.99-2.85.61-4.67,3.42-4.06,6.27.61,2.86,3.42,4.68,6.28,4.07,8.27-1.76,22.28-8.24,22.28-21.34,0-10.95-4.5-16.76-8.27-19.71-5.82-4.55-14.1-5.8-23.31-3.51-.39.1-.79.2-1.21.31.04-8.28.14-19.47.23-29.57.1-10.78.19-20.97.19-26.15,0-11.74,8.98-12.4,9.95-12.43.1,0,10.4.24,10.4,8.18,0,24.39.45,47.5.45,47.73.06,2.9,2.38,5.22,5.35,5.19,2.9-.03,5.24-2.4,5.24-5.3l-.07-53.49c0-.08,0-.18,0-.26-.11-2.24.34-8.81,3.6-12.24,1.54-1.61,3.63-2.4,6.41-2.4s4.81.78,6.38,2.37c3.29,3.34,3.94,9.69,3.91,11.84,0,.06,0,.11,0,.17l.5,52.48c.03,2.92,2.4,5.24,5.33,5.24,2.92-.02,5.27-2.39,5.26-5.31,0,0-.13-36.53-.13-43.5,0-11.52,3.24-17.36,9.62-17.36,2.23,0,3.93.74,5.36,2.32,5.57,6.18,5.3,22.32,4.76,27.49-.02.19-.03.37-.03.56l.03,36.49c0,2.91,2.36,5.28,5.27,5.29h.02c2.9,0,5.27-2.34,5.29-5.24,0-.18.16-18.32.16-32.66,0-3.72,1.03-5.83,2.57-7.85,1.06-1.39,2.91-2.15,4.93-2.02,2.04.13,3.78,1.11,4.67,2.63,6.62,11.36,5.41,35.84,4.76,48.99Z" fill="#ff0013" stroke-width="0"/><line x1="149.15" y1="139.43" x2="186.54" y2="176.82" fill="none" stroke="#ff0013" stroke-linecap="round" stroke-linejoin="round" stroke-width="8"/><line x1="186.54" y1="139.43" x2="149.15" y2="176.82" fill="none" stroke="#ff0013" stroke-linecap="round" stroke-linejoin="round" stroke-width="8"/></svg>