<?xml version="1.0" encoding="UTF-8"?><svg id="_圖層_1" xmlns="http://www.w3.org/2000/svg" viewBox="0 0 300 300"><rect x="61.28" y="164.41" width="259.44" height="53.27" rx="2.83" ry="2.83" transform="translate(-79.15 191.01) rotate(-45)" fill="#9fecff" stroke-width="0"/><g id="_上捲線"><path d="m61.91,262.59c-1.9,0-3.93-.2-6.03-.69-10.31-2.4-14.66-7.58-19.35-15.17-8.32-2.7-14.03-9.27-16.58-19.13-3.01-11.62,1.13-23.08,1.3-23.56.86-2.33,3.45-3.52,5.78-2.67,2.33.86,3.52,3.44,2.67,5.77h0c-.03.09-3.33,9.36-1.04,18.2.92,3.56,2.3,6.4,4.17,8.56.38-4.49,2.39-8.58,5.09-11.5,4.89-5.3,11.88-6.83,17.8-3.88.22.11.43.24.63.38l.8.58c.21.15.41.33.59.51,4.59,4.72,5.27,11.81,1.74,18.07-2.3,4.06-6.43,7.72-11.66,9.15,2.59,3.09,5.38,4.83,10.1,5.93,7.12,1.66,13.26-1.79,13.32-1.82,2.15-1.23,4.9-.5,6.14,1.64,1.24,2.14.54,4.87-1.59,6.13-.3.18-6.06,3.51-13.88,3.51Zm-19.48-23.78c4.2.25,7.57-2.28,9.22-5.19.57-1.01,2.2-4.42-.12-7.11l-.1-.07c-3.31-1.42-6.1,1.2-6.9,2.06-2.25,2.44-3.62,6.42-2.1,10.31Z" fill="#3f4243" stroke-width="0"/></g><path d="m254.85,84.24h29.82c1.56,0,2.83,1.27,2.83,2.83v47.6c0,1.56-1.27,2.83-2.83,2.83h-29.82v-53.27h0Z" transform="translate(1.03 224.22) rotate(-45)" fill="#3f4243" stroke-width="0"/><rect x="118.95" y="231.46" width="10" height="53.27" transform="translate(-146.2 163.24) rotate(-45)" fill="#3f4243" stroke-width="0"/><path d="m109.99,28c-1.96-3.36-5.57-5.52-9.65-5.77-2.19-.14-4.31.29-6.17,1.19-.54-5.18-1.97-10.98-5.41-14.8-2.52-2.8-5.87-4.28-9.7-4.28-2.35,0-6.33.55-9.58,3.78-.7-1.42-1.62-2.8-2.82-4.03C64.04,1.42,60.5,0,56.42,0s-7.75,1.45-10.35,4.2c-2.08,2.2-3.26,4.9-3.93,7.39-2.85-1.64-6.12-2.35-8.72-2.35-3.91,0-15.06,3.1-15.06,16.88,0,3.76-.07,11.21-.14,19.1-.08,8.56-.17,18.2-.18,24.4C9.65,73.18.04,79.87.04,91.82v1.16c-.01,6.75-.02,9.83,3.8,19.46,3.57,9.01,11.07,19.42,15.22,24.83,1.54,2,3,3.93,2.54,7.99-4.04.73-7.1,4.26-7.1,8.51v22.97c0,4.78,3.88,8.66,8.66,8.66h76.41c4.78,0,8.66-3.88,8.66-8.66v-22.97c0-3.89-2.57-7.18-6.1-8.27-.23-3.21-.48-7.93-.26-10.89.13-1.77,1.57-4.71,3.1-7.83,1.98-4.04,4.21-8.61,5.34-13.76,1.97-9.01,3.96-28.38,4-39.1,0-1.38.11-3.38.22-5.7.55-11.18,1.48-29.9-4.53-40.22Zm-3.22,39.83c-.12,2.41-.22,4.49-.23,6.05-.04,10.12-1.97,29.03-3.82,37.48-.93,4.23-2.95,8.36-4.73,12-1.94,3.97-3.62,7.39-3.86,10.65-.24,3.15-.04,7.7.19,11.09H29.42c.42-5.87-1.8-9.43-4.2-12.57-6.64-8.66-11.8-17.03-14.16-22.97-3.27-8.25-3.27-10.35-3.26-16.59v-1.17c0-11.17,14.52-15.99,20.76-17.54,1.57-.39,3.08-.58,4.47-.58,2.43,0,4.5.59,5.97,1.74,2.05,1.6,3.08,4.41,3.08,8.34,0,5.64-9.99,8.01-10.2,8.06-2.09.45-3.43,2.51-2.98,4.6.45,2.1,2.51,3.44,4.6,2.99,6.07-1.29,16.34-6.04,16.34-15.65,0-8.03-3.3-12.29-6.07-14.46-4.27-3.34-10.34-4.25-17.09-2.57-.28.07-.58.15-.89.23.03-6.07.1-14.28.17-21.68.07-7.91.14-15.38.14-19.17,0-8.61,6.59-9.09,7.3-9.12.08,0,7.63.17,7.63,6,0,17.89.33,34.83.33,35,.04,2.13,1.74,3.83,3.92,3.81,2.13-.02,3.84-1.76,3.84-3.89l-.05-39.23c0-.06,0-.13,0-.19-.08-1.64.25-6.46,2.64-8.98,1.13-1.18,2.66-1.76,4.7-1.76s3.53.57,4.68,1.74c2.42,2.45,2.89,7.11,2.87,8.68,0,.04,0,.08,0,.12l.37,38.49c.02,2.14,1.76,3.85,3.91,3.84,2.14-.01,3.86-1.76,3.86-3.89,0,0-.09-26.79-.09-31.9,0-8.45,2.37-12.73,7.06-12.73,1.63,0,2.88.54,3.93,1.7,4.09,4.53,3.89,16.37,3.49,20.16-.01.14-.02.27-.02.41l.02,26.76c0,2.14,1.73,3.87,3.86,3.88h.02c2.13,0,3.86-1.72,3.88-3.85,0-.13.12-13.43.12-23.95,0-2.73.75-4.27,1.89-5.76.78-1.02,2.13-1.58,3.61-1.48,1.49.09,2.77.81,3.43,1.93,4.85,8.33,3.97,26.28,3.49,35.93Z" fill="#ff0013" stroke-width="0"/><path d="m87.22,119.31c-.99,0-1.99-.38-2.74-1.14l-27.42-27.42c-1.52-1.52-1.52-3.97,0-5.49,1.51-1.51,3.97-1.51,5.49,0l27.42,27.42c1.52,1.52,1.52,3.97,0,5.49-.76.76-1.75,1.14-2.74,1.14Z" fill="#ff0013" stroke-width="0"/><path d="m59.8,119.31c-.99,0-1.99-.38-2.74-1.14-1.52-1.52-1.52-3.97,0-5.49l27.42-27.42c1.51-1.51,3.97-1.51,5.49,0,1.52,1.52,1.52,3.97,0,5.49l-27.42,27.42c-.76.76-1.75,1.14-2.74,1.14Z" fill="#ff0013" stroke-width="0"/></svg>