<?xml version="1.0" encoding="UTF-8"?><svg id="_圖層_1" xmlns="http://www.w3.org/2000/svg" viewBox="0 0 300 300"><circle id="_櫃子右邊腳" cx="236.34" cy="271.17" r="28.83" fill="#3f4243" stroke-width="0"/><circle id="_櫃子左邊腳" cx="64.6" cy="271.17" r="28.83" fill="#3f4243" stroke-width="0"/><path id="_櫃子" d="m40.45,0h220.14c14.08,0,25.51,11.43,25.51,25.51v242.82c0,1.56-1.27,2.83-2.83,2.83H17.78c-1.56,0-2.83-1.27-2.83-2.83V25.51C14.94,11.43,26.37,0,40.45,0Z" fill="#9fecff" stroke-width="0"/><path d="m239.4,93.47H63.39c-3.65,0-6.61-2.96-6.61-6.61s2.96-6.61,6.61-6.61h176c3.65,0,6.61,2.96,6.61,6.61s-2.96,6.61-6.61,6.61Z" fill="#3f4243" stroke-width="0"/><path d="m239.4,61.03H63.39c-3.65,0-6.61-2.96-6.61-6.61s2.96-6.61,6.61-6.61h176c3.65,0,6.61,2.96,6.61,6.61s-2.96,6.61-6.61,6.61Z" fill="#3f4243" stroke-width="0"/><g id="_把手"><path d="m249.45,179.98c-.37,0-.74-.03-1.11-.09-8.32-1.42-14.37-8.21-15.43-17.3-.61-5.28.54-11.33,3.92-16.39-3.68-.61-6.98-.12-11.33,1.72-7.62,3.23-10.89,10.4-10.92,10.47-1.45,3.35-5.34,4.9-8.7,3.45-3.35-1.45-4.9-5.34-3.45-8.7.21-.49,5.34-12.07,17.9-17.4,11.86-5.03,20.19-3.07,29.91.85,10.22-3.18,20.61-.74,30.24,7.16,11.39,9.34,15.57,23.69,15.74,24.29,1,3.51-1.04,7.17-4.55,8.17-3.5,1-7.16-1.03-8.16-4.53h0c-.03-.11-3.29-11.04-11.41-17.7-2.29-1.88-4.56-3.28-6.8-4.19,1.83,4.16,2.4,8.68,1.93,12.73-1.06,9.13-7.13,15.94-15.48,17.37-.36.06-.72.09-1.08.09h-1.18s-.02,0-.04,0Zm.63-28.78c-3.26,2.49-4.42,6.51-4.03,9.86.17,1.46.89,4.81,3.98,5.67,3.14-.86,3.88-4.26,4.05-5.73.38-3.33-.76-7.32-4-9.79Z" fill="#3f4243" stroke-width="0"/></g></svg>