<?xml version="1.0" encoding="UTF-8"?><svg id="_圖層_1" xmlns="http://www.w3.org/2000/svg" viewBox="0 0 300 300"><path id="_杯子" d="m111.7,296.63c.31,1.51,1.64,2.6,3.18,2.6h73.53c1.54,0,2.87-1.09,3.18-2.6l29.42-144.49c.41-2.01-1.13-3.89-3.18-3.89H85.46c-2.05,0-3.59,1.88-3.18,3.89l29.42,144.49Z" fill="#9fecff" stroke-width="0"/><path id="_水" d="m162.97,112.19c0,6.66-5.4,12.07-12.07,12.07s-12.07-5.4-12.07-12.07,9.91-23.48,12.07-27.89c4.66,7.39,12.07,21.22,12.07,27.89Z" fill="#9fecff" stroke-width="0"/><g id="_捲捲按鈕"><path d="m130.44,65.61c-.36,0-.71-.03-1.06-.09-11.04-1.88-19.08-10.99-20.49-23.2-1.06-9.13,1.72-19.95,9.59-27.6-10.69-3.18-20.16-.68-27.66,2.2-16,6.14-28.53,21.48-28.66,21.64-2.19,2.71-6.17,3.14-8.88.95-2.72-2.19-3.15-6.16-.96-8.88.59-.74,14.73-18.13,33.98-25.52,10.9-4.18,27.23-8.38,45.66,1.59,16.24-6.58,32.03-10.46,54.28-.13,3.17,1.47,4.54,5.23,3.07,8.4-1.47,3.17-5.23,4.54-8.4,3.07-14.97-6.95-25.58-6.18-37.19-2.27,7.6,8.49,11.25,19.89,9.17,30.4-2.05,10.37-9.36,17.59-19.57,19.33-.34.06-.68.09-1.03.09h-1.82s-.02,0-.03,0Zm.5-44.58c-7.6,4.51-10.3,12.94-9.5,19.83.28,2.46,1.81,10.47,9.57,12.1h.64c6.02-1.23,8.12-5.68,8.83-9.24,1.35-6.83-1.57-16.41-9.55-22.7Z" fill="#3f4243" stroke-width="0"/><path d="m184.6,65.61c-.36,0-.71-.03-1.06-.09-11.04-1.88-19.08-10.99-20.49-23.2-1.42-12.29,4.1-27.63,19.64-34.2,15.74-6.65,32.01-3.63,47.06,8.71,2.7,2.21,3.09,6.2.88,8.89-2.21,2.7-6.2,3.09-8.89.88-7.48-6.13-15.01-9.23-22.51-9.25,6.68,8.29,9.79,18.96,7.84,28.83-2.05,10.37-9.36,17.59-19.57,19.33-.34.06-.68.09-1.03.09h-1.82s-.02,0-.03,0Zm.5-44.58c-7.6,4.51-10.3,12.94-9.5,19.83.28,2.46,1.81,10.47,9.57,12.1h.64c6.02-1.23,8.12-5.68,8.83-9.24,1.35-6.83-1.57-16.41-9.55-22.7Z" fill="#3f4243" stroke-width="0"/></g></svg>