<?xml version="1.0" encoding="UTF-8"?><svg id="_圖層_1" xmlns="http://www.w3.org/2000/svg" viewBox="0 0 300 300"><g id="_右下箭頭"><path d="m199.84,129.53h45.35c29.45,0,53.42,23.97,53.42,53.42v56.92c0,29.45-23.97,53.42-53.42,53.42h-58.31v-41.13h58.31c6.78,0,12.29-5.51,12.29-12.29v-56.92c0-6.78-5.51-12.29-12.29-12.29h-45.35v-41.13Z" fill="#9fecff" stroke-width="0"/><path d="m174.31,145.2l42.58-35.9c1.84-1.55,4.66-.24,4.66,2.17v71.81c0,2.41-2.82,3.72-4.66,2.17l-42.58-35.9c-1.34-1.13-1.34-3.2,0-4.33Z" fill="#9fecff" stroke-width="0"/></g><rect id="_右下箭頭底" x="181.64" y="249.13" width="10.47" height="47.11" rx="2.83" ry="2.83" fill="#3f4243" stroke-width="0"/><g id="_右上箭頭"><path d="m130.6,95.56v-42.14c0-29.45,23.97-53.42,53.42-53.42h56.92c29.45,0,53.42,23.97,53.42,53.42v58.31h-41.13v-58.31c0-6.78-5.51-12.29-12.29-12.29h-56.92c-6.78,0-12.29,5.51-12.29,12.29v42.14h-41.13Z" fill="#9fecff" stroke-width="0"/><path d="m153.72,125.36l35.9-42.58c1.55-1.84.24-4.66-2.17-4.66h-71.81c-2.41,0-3.72,2.82-2.17,4.66l35.9,42.58c1.13,1.34,3.2,1.34,4.33,0Z" fill="#9fecff" stroke-width="0"/></g><rect id="_右上箭頭底" x="268.28" y="88.18" width="10.47" height="47.11" rx="2.83" ry="2.83" transform="translate(385.25 -161.78) rotate(90)" fill="#3f4243" stroke-width="0"/><g id="_左上箭頭"><path d="m97.4,170.66h-41.71c-29.45,0-53.42-23.97-53.42-53.42v-56.92C2.26,30.87,26.23,6.9,55.68,6.9h58.31v41.13h-58.31c-6.78,0-12.29,5.51-12.29,12.29v56.92c0,6.78,5.51,12.29,12.29,12.29h41.71v41.13Z" fill="#9fecff" stroke-width="0"/><path d="m128.03,145.2l-42.58-35.9c-1.84-1.55-4.66-.24-4.66,2.17v71.81c0,2.41,2.82,3.72,4.66,2.17l42.58-35.9c1.34-1.13,1.34-3.2,0-4.33Z" fill="#9fecff" stroke-width="0"/></g><rect id="_左上箭頭底" x="108.63" y="4.05" width="10.47" height="47.11" rx="2.83" ry="2.83" fill="#3f4243" stroke-width="0"/><g id="_左下箭頭"><path d="m171.74,200.18v46.6c0,29.45-23.97,53.42-53.42,53.42h-56.92c-29.45,0-53.42-23.97-53.42-53.42v-58.31h41.13v58.31c0,6.78,5.51,12.29,12.29,12.29h56.92c6.78,0,12.29-5.51,12.29-12.29v-46.6h41.13Z" fill="#9fecff" stroke-width="0"/><path d="m153.72,173.23l35.9,42.58c1.55,1.84.24,4.66-2.17,4.66h-71.81c-2.41,0-3.72-2.82-2.17-4.66l35.9-42.58c1.13-1.34,3.2-1.34,4.33,0Z" fill="#9fecff" stroke-width="0"/></g><rect id="_左下箭頭底" x="23.2" y="164.91" width="10.47" height="47.11" rx="2.83" ry="2.83" transform="translate(216.9 160.02) rotate(90)" fill="#3f4243" stroke-width="0"/></svg>