<?xml version="1.0" encoding="UTF-8"?><svg id="_圖層_1" xmlns="http://www.w3.org/2000/svg" viewBox="0 0 300 300"><circle id="_小孩頭" cx="149.17" cy="147.76" r="18.18" fill="#9fecff" stroke-width="0"/><ellipse id="_小孩身" cx="149.17" cy="208.04" rx="22.64" ry="34.89" fill="#9fecff" stroke-width="0"/><path d="m136.03,299.97c-2.92,0-5.29-2.37-5.29-5.29v-44.18c0-2.92,2.37-5.29,5.29-5.29s5.29,2.37,5.29,5.29v44.18c0,2.92-2.37,5.29-5.29,5.29Z" fill="#3f4243" stroke-width="0"/><path d="m162.32,299.97c-2.92,0-5.29-2.37-5.29-5.29v-44.18c0-2.92,2.37-5.29,5.29-5.29s5.29,2.37,5.29,5.29v44.18c0,2.92-2.37,5.29-5.29,5.29Z" fill="#3f4243" stroke-width="0"/><g id="_雙手"><path d="m150.25,219.38h-.04l-2.16-.02c-.25,0-.5-.02-.74-.07-7.69-1.31-13.08-7.39-14.06-15.86-.62-5.33.76-11.78,4.69-16.93-4.43.47-8.87,2.53-13.28,6.15-9.1,7.46-12.67,19.57-12.71,19.69-.71,2.45-3.27,3.88-5.72,3.17-2.45-.7-3.88-3.26-3.18-5.71.17-.61,4.35-14.96,15.74-24.31,9.71-7.96,20.16-10.29,30.36-6.81,10.22-3.5,20.68-1.18,30.41,6.8,11.39,9.34,15.57,23.7,15.74,24.31.7,2.46-.73,5.02-3.19,5.72-2.45.7-5.02-.72-5.72-3.18-.07-.26-3.66-12.26-12.71-19.68-4.42-3.63-8.88-5.68-13.31-6.15,3.95,5.16,5.34,11.63,4.72,16.97-.98,8.47-6.37,14.55-14.06,15.86-.26.04-.52.07-.78.07Zm-1.71-9.27h1.29c4.91-1.06,5.88-6.15,6.06-7.72.53-4.6-1.39-10.58-6.74-13.63-5.32,3.06-7.24,9.03-6.71,13.62.18,1.57,1.15,6.69,6.09,7.74Z" fill="#3f4243" stroke-width="0"/></g><path d="m147.19,1.26L8.66,156.38c-2.17,2.43-.45,6.29,2.81,6.29h32.95c2.08,0,3.77,1.69,3.77,3.77v129.78c0,2.08,1.69,3.77,3.77,3.77h40.74c2.08,0,3.77-1.69,3.77-3.77V123.07c0-2.08,1.69-3.77,3.77-3.77h99.64c2.08,0,3.77,1.69,3.77,3.77v173.16c0,2.08,1.69,3.77,3.77,3.77h40.57c2.08,0,3.77-1.69,3.77-3.77v-129.78c0-2.08,1.69-3.77,3.77-3.77h32.95c3.26,0,4.99-3.86,2.81-6.29L152.81,1.26c-1.5-1.68-4.13-1.68-5.63,0Z" fill="#9fecff" stroke-width="0"/></svg>