<?xml version="1.0" encoding="UTF-8"?><svg id="_圖層_1" xmlns="http://www.w3.org/2000/svg" viewBox="0 0 300 300"><circle id="_人頭" cx="104.73" cy="67.53" r="23.3" fill="#9fecff" stroke-width="0"/><ellipse id="_人身" cx="104.73" cy="144.81" rx="29.03" ry="44.72" fill="#9fecff" stroke-width="0"/><path d="m87.88,262.48c-3.65,0-6.61-2.96-6.61-6.61v-56.63c0-3.65,2.96-6.61,6.61-6.61s6.61,2.96,6.61,6.61v56.63c0,3.65-2.96,6.61-6.61,6.61Z" fill="#3f4243" stroke-width="0"/><path d="m121.58,262.48c-3.65,0-6.61-2.96-6.61-6.61v-56.63c0-3.65,2.96-6.61,6.61-6.61s6.61,2.96,6.61,6.61v56.63c0,3.65-2.96,6.61-6.61,6.61Z" fill="#3f4243" stroke-width="0"/><g id="_雙手"><path d="m103.89,160.01c-.37,0-.74-.03-1.11-.09-10.15-1.73-17.55-10.08-18.85-21.27-.77-6.62.68-14.21,4.93-20.54-5.03.88-10.07,3.38-15.1,7.5-11.49,9.43-16.03,24.75-16.07,24.9-1.02,3.5-4.68,5.54-8.18,4.53-3.51-1.01-5.54-4.65-4.54-8.16.22-.79,5.64-19.39,20.4-31.5,12.57-10.31,26.11-13.36,39.34-8.93,13.26-4.47,26.82-1.42,39.41,8.91,14.76,12.11,20.18,30.71,20.4,31.5,1,3.51-1.04,7.17-4.55,8.17-3.51.99-7.16-1.03-8.17-4.54h0c-.04-.15-4.58-15.48-16.07-24.9-5.04-4.14-10.11-6.65-15.16-7.51,4.24,6.31,5.69,13.88,4.93,20.48-1.3,11.23-8.73,19.61-18.92,21.35-.36.06-.71.09-1.07.09h-1.59s-.02,0-.04,0Zm.84-39.13c-6.14,3.73-8.32,10.61-7.66,16.25.23,1.96,1.43,8.31,7.43,9.65h.33c6.09-1.34,7.31-7.77,7.54-9.74.65-5.61-1.52-12.45-7.64-16.16Z" fill="#3f4243" stroke-width="0"/></g><g id="_下樓箭頭"><path d="m255.13,229.64c-3.65,0-6.61-2.96-6.61-6.61v-48.13c0-3.65,2.96-6.61,6.61-6.61s6.61,2.96,6.61,6.61v48.13c0,3.65-2.96,6.61-6.61,6.61Z" fill="#3f4243" stroke-width="0"/><path d="m255.13,229.64c-1.79,0-3.57-.72-4.88-2.14-7.98-8.71-18.69-8.82-19.14-8.82-3.63,0-6.61-2.94-6.63-6.57s2.87-6.6,6.5-6.66c.65-.01,16.93-.08,29.02,13.1,2.47,2.69,2.29,6.88-.4,9.34-1.27,1.17-2.87,1.74-4.47,1.74Z" fill="#3f4243" stroke-width="0"/><path d="m255.13,229.64c-1.6,0-3.2-.57-4.47-1.74-2.69-2.47-2.87-6.65-.4-9.34,12.09-13.18,28.35-13.12,29.02-13.1,3.65.05,6.57,3.05,6.52,6.7-.05,3.64-2.97,6.56-6.66,6.52-.55,0-11.19.15-19.14,8.82-1.3,1.42-3.09,2.14-4.88,2.14Z" fill="#3f4243" stroke-width="0"/></g><g id="_上樓箭頭"><path d="m255.13,127.71c-3.65,0-6.61-2.96-6.61-6.61v-48.13c0-3.65,2.96-6.61,6.61-6.61s6.61,2.96,6.61,6.61v48.13c0,3.65-2.96,6.61-6.61,6.61Z" fill="#3f4243" stroke-width="0"/><path d="m279.17,90.54c-1.59,0-17.21-.33-28.91-13.1-2.47-2.69-2.29-6.88.4-9.34,2.69-2.47,6.88-2.29,9.34.4,7.98,8.71,18.69,8.82,19.14,8.82,3.63,0,6.61,2.94,6.63,6.57.02,3.64-2.87,6.61-6.5,6.66h-.11Z" fill="#3f4243" stroke-width="0"/><path d="m231.09,90.54h-.11c-3.65-.05-6.57-3.05-6.52-6.7.05-3.62,3-6.52,6.61-6.52h.05c.56,0,11.19-.16,19.13-8.82,2.47-2.69,6.65-2.87,9.34-.4,2.69,2.47,2.87,6.65.4,9.34-11.71,12.77-27.32,13.1-28.91,13.1Z" fill="#3f4243" stroke-width="0"/></g><path d="m199.59,300.13H9.91c-5.48,0-9.92-4.44-9.92-9.92V9.85C-.01,4.37,4.43-.07,9.91-.07h189.69c5.48,0,9.92,4.44,9.92,9.92v280.36c0,5.48-4.44,9.92-9.92,9.92Zm-179.76-19.84h169.84V19.77H19.83v260.51Z" fill="#9fecff" stroke-width="0"/></svg>