<?xml version="1.0" encoding="UTF-8"?><svg id="_圖層_1" xmlns="http://www.w3.org/2000/svg" viewBox="0 0 300 300"><ellipse cx="150" cy="229.68" rx="150" ry="31.61" fill="#3f4243" stroke-width="0"/><path d="m261.13,212.53c0,20.34-48.95,16.93-109.33,16.93s-109.33,3.41-109.33-16.93,48.95-36.84,109.33-36.84,109.33,16.49,109.33,36.84Z" fill="#9fecff" opacity=".99" stroke-width="0"/><ellipse cx="96.11" cy="134.75" rx="22.13" ry="26.97" transform="translate(-67.13 107.43) rotate(-45)" fill="#9fecff" opacity=".99" stroke-width="0"/><rect x="50.69" y="45.22" width="13.65" height="101.86" rx="2.83" ry="2.83" transform="translate(-51.14 68.83) rotate(-45)" fill="#9fecff" opacity=".99" stroke-width="0"/><path d="m137.55,215.01c-.26,0-.52-.02-.78-.07-5.9-1.01-10.2-5.83-10.95-12.29-.45-3.88.44-8.34,3.03-12-2.8-.29-5.77.22-9.18,1.53-2.39.92-5.06-.28-5.98-2.67-.92-2.39.28-5.06,2.67-5.98,5.26-2.02,13.09-4.05,22,.46,7.69-3.04,15.28-4.68,25.94.27,2.32,1.08,3.33,3.83,2.25,6.15-1.08,2.32-3.83,3.32-6.15,2.25-5.49-2.55-9.56-2.73-13.8-1.68,2.78,4.05,4,8.99,3.09,13.6-1.1,5.55-5.02,9.42-10.5,10.35-.25.04-.5.06-.75.07h-.85s-.02,0-.03,0Zm.12-20.34c-2.16,1.81-2.92,4.59-2.65,6.92.12,1.07.66,3.54,2.96,4.15.79-.18,2.17-.75,2.61-2.95.47-2.39-.43-5.66-2.92-8.12Z" fill="#3f4243" stroke-width="0"/><path d="m163.26,215.01c-.26,0-.52-.02-.78-.07-5.9-1.01-10.2-5.83-10.95-12.29-.74-6.36,2.13-14.29,10.18-17.7,8.53-3.6,16.55-6.14,28.28-.7,2.32,1.08,3.33,3.83,2.25,6.15-1.08,2.32-3.83,3.32-6.15,2.25-5.49-2.55-9.57-2.73-13.8-1.68,2.78,4.05,4,8.99,3.09,13.6-1.1,5.55-5.02,9.42-10.5,10.35-.25.04-.5.06-.75.07h-.85s-.02,0-.03,0Zm.12-20.34c-2.16,1.81-2.92,4.59-2.65,6.92.12,1.07.66,3.54,2.96,4.15.79-.18,2.17-.75,2.61-2.95.47-2.39-.43-5.66-2.92-8.12Z" fill="#3f4243" stroke-width="0"/></svg>