<?xml version="1.0" encoding="UTF-8"?><svg id="_圖層_1" xmlns="http://www.w3.org/2000/svg" viewBox="0 0 300 300"><g id="_雙手"><path d="m61.07,176.03c-3.65,0-6.61-2.96-6.61-6.61s2.96-6.61,6.61-6.61c30.46,0,58.25-7.86,76.34-14.52-3.11-4.52-4.62-10.13-3.95-15.85.99-8.56,6.71-14.95,14.58-16.29.38-.07.81-.08,1.16-.09l1.92.02c.36,0,.71.03,1.06.09,7.86,1.34,13.58,7.74,14.58,16.29.59,5.07-.53,10.05-2.96,14.27,17.61,2.47,50.87,2.24,74.48-21.88,2.56-2.61,6.74-2.65,9.35-.1,2.61,2.56,2.65,6.74.1,9.35-31.7,32.37-79.81,28.89-97.4,23.36-18.14,7.41-51.71,18.57-89.25,18.57Zm88.74-46.75c-2.39.67-3.04,3.18-3.21,4.67-.33,2.88.68,6.53,3.52,8.83,2.82-2.31,3.83-5.94,3.5-8.82-.17-1.5-.83-4.03-3.26-4.68h-.55Z" fill="#3f4243" stroke-width="0"/></g><path d="m71.1,70.97v164.51c0,2.44-2.29,4.25-4.65,3.64C28.23,229.24,0,194.54,0,153.23s28.23-76.02,66.45-85.9c2.36-.61,4.65,1.21,4.65,3.64Z" fill="#9fecff" opacity=".99" stroke-width="0"/><path d="m228.9,235.49V70.99c0-2.44,2.29-4.25,4.65-3.64,38.22,9.88,66.45,44.59,66.45,85.9s-28.23,76.02-66.45,85.9c-2.36.61-4.65-1.21-4.65-3.64Z" fill="#9fecff" opacity=".99" stroke-width="0"/></svg>