<?xml version="1.0" encoding="UTF-8"?><svg id="_圖層_1" xmlns="http://www.w3.org/2000/svg" viewBox="0 0 300 300"><path d="m242.69,218.27H0V84.13h37.33c11.88,0,23.53,3.33,33.62,9.6l38.92,24.2,94.91,59.02,42.22,26.25c6.96,4.33,3.89,15.07-4.3,15.07Z" fill="#9fecff" stroke-width="0"/><path d="m203.22,175.76h-91.19c-1.25,0-2.41-.62-3.11-1.65l-34.74-51.52c-1.68-2.49.11-5.85,3.11-5.85h31.03l94.91,59.02Z" fill="#3f4243" stroke-width="0"/><rect x="13.48" y="116.73" width="41.14" height="77.27" rx="2.83" ry="2.83" fill="#3f4243" stroke-width="0"/><path d="m300.01,223.41c0,3.65-2.96,6.61-6.61,6.61H0v-13.23h293.4c3.65,0,6.61,2.96,6.61,6.61Z" fill="#3f4243" stroke-width="0"/></svg>